<svg width="432.25628662109375px" height="78.8px" xmlns="http://www.w3.org/2000/svg" viewBox="33.871856689453125 35.6 432.25628662109375 78.8" style="background: rgba(0, 0, 0, 0);" preserveAspectRatio="xMidYMid"><defs><filter id="editing-hole" x="-100%" y="-100%" width="300%" height="300%"><feFlood flood-color="#000" result="black"></feFlood><feMorphology operator="dilate" radius="2" in="SourceGraphic" result="erode"></feMorphology><feGaussianBlur in="erode" stdDeviation="4" result="blur"></feGaussianBlur><feOffset in="blur" dx="2" dy="2" result="offset"></feOffset><feComposite operator="atop" in="offset" in2="black" result="merge"></feComposite><feComposite operator="in" in="merge" in2="SourceGraphic" result="inner-shadow"></feComposite></filter></defs><g filter="url(#editing-hole)"><g transform="translate(98.37497901916504, 92.20500183105469)"><path d="M3.59-18.02L3.59-18.02L3.59-18.02Q2.33-18.98 2.33-21.03L2.33-21.03L2.33-21.03Q2.33-23.09 3.68-24.16L3.68-24.16L3.68-24.16Q5.03-25.23 7.36-25.23L7.36-25.23L7.36-25.23Q8.84-25.23 12.36-24.72L12.36-24.72L14.87-24.35L14.87-24.35Q16.13-24.20 17.45-24.20L17.45-24.20L17.45-24.20Q18.76-24.20 19.65-24.75L19.65-24.75L19.65-24.75Q20.98-23.57 20.98-21.87L20.98-21.87L20.98-21.87Q20.98-20.16 19.46-18.94L19.46-18.94L19.46-18.94Q17.91-17.65 15.91-17.65L15.91-17.65L15.91-17.65Q14.95-17.65 13.39-17.91L13.39-17.91L13.39-17.91Q11.58-12.21 11.58-8.25L11.58-8.25L11.58-8.25Q11.58-4.29 13.58-2.22L13.58-2.22L13.58-2.22Q12.65-0.55 11.29 0.09L11.29 0.09L11.29 0.09Q9.92 0.74 7.86 0.74L7.86 0.74L7.86 0.74Q5.81 0.74 4.53-0.39L4.53-0.39L4.53-0.39Q3.26-1.52 3.26-3.85L3.26-3.85L3.26-3.85Q3.26-6.55 4.74-10.99L4.74-10.99L4.74-10.99Q6.22-15.39 8.44-18.76L8.44-18.76L8.44-18.76Q7.36-18.87 6.25-18.87L6.25-18.87L6.25-18.87Q3.96-18.87 3.59-18.02ZM28.68-2.03L28.68-2.03L28.68-2.03Q27.53 0.74 23.87 0.74L23.87 0.74L23.87 0.74Q21.98 0.74 20.79-0.55L20.79-0.55L20.79-0.55Q19.80-1.70 19.80-2.85L19.80-2.85L19.80-2.85Q19.80-5.85 21.16-11.69L21.16-11.69L22.53-18.87L30.04-19.61L27.79-7.92L27.79-7.92Q27.16-5.18 27.16-4.22L27.16-4.22L27.16-4.22Q27.16-2.11 28.68-2.03ZM23.20-24.01L23.20-24.01L23.20-24.01Q23.20-25.46 24.40-26.23L24.40-26.23L24.40-26.23Q25.60-27.01 27.34-27.01L27.34-27.01L27.34-27.01Q29.08-27.01 30.14-26.23L30.14-26.23L30.14-26.23Q31.19-25.46 31.19-24.01L31.19-24.01L31.19-24.01Q31.19-22.57 30.03-21.83L30.03-21.83L30.03-21.83Q28.86-21.09 27.12-21.09L27.12-21.09L27.12-21.09Q25.38-21.09 24.29-21.83L24.29-21.83L24.29-21.83Q23.20-22.57 23.20-24.01ZM58.46 0.74L58.46 0.74L58.46 0.74Q53.98 0.74 53.98-2.74L53.98-2.74L53.98-2.74Q53.98-4.25 54.63-7.20L54.63-7.20L54.63-7.20Q55.28-10.14 55.50-11.32L55.50-11.32L55.50-11.32Q56.02-14.02 56.02-14.87L56.02-14.87L56.02-14.87Q56.02-16.76 54.61-16.76L54.61-16.76L54.61-16.76Q53.69-16.76 52.80-15.48L52.80-15.48L52.80-15.48Q51.91-14.21 51.50-11.65L51.50-11.65L49.21 0L41.99 0.74L43.99-9.32L43.99-9.32Q44.33-10.99 44.62-12.88L44.62-12.88L44.62-12.88Q44.92-14.76 44.92-15.06L44.92-15.06L44.92-15.06Q44.92-16.76 43.66-16.76L43.66-16.76L43.66-16.76Q42.81-16.76 41.88-15.50L41.88-15.50L41.88-15.50Q40.96-14.24 40.44-11.65L40.44-11.65L38.18 0L30.89 0.74L34.78-18.87L40.81-19.61L40.18-15.87L40.18-15.87Q41.14-17.87 42.92-18.74L42.92-18.74L42.92-18.74Q44.70-19.61 47.47-19.61L47.47-19.61L47.47-19.61Q49.06-19.61 50.10-18.83L50.10-18.83L50.10-18.83Q51.13-18.06 51.47-16.80L51.47-16.80L51.47-16.80Q52.10-18.09 53.71-18.85L53.71-18.85L53.71-18.85Q55.31-19.61 57.29-19.61L57.29-19.61L57.29-19.61Q59.27-19.61 60.25-19.18L60.25-19.18L60.25-19.18Q61.23-18.76 61.83-18.06L61.83-18.06L61.83-18.06Q62.83-16.76 62.83-14.39L62.83-14.39L62.83-14.39Q62.83-12.06 61.83-7.21L61.83-7.21L61.83-7.21Q61.31-4.85 61.31-3.98L61.31-3.98L61.31-3.98Q61.31-3.11 61.81-2.59L61.81-2.59L61.81-2.59Q62.31-2.07 63.05-2.00L63.05-2.00L63.05-2.00Q62.68-0.74 61.40 0L61.40 0L61.40 0Q60.13 0.74 58.46 0.74ZM80.88-6.25L80.88-6.25L80.88-6.25Q81.81-5.62 81.81-4.24L81.81-4.24L81.81-4.24Q81.81-2.85 81.10-1.96L81.10-1.96L81.10-1.96Q80.40-1.07 79.25-0.48L79.25-0.48L79.25-0.48Q76.89 0.74 74.33 0.74L74.33 0.74L74.33 0.74Q71.78 0.74 70.28 0.18L70.28 0.18L70.28 0.18Q68.78-0.37 67.78-1.41L67.78-1.41L67.78-1.41Q65.82-3.37 65.82-6.96L65.82-6.96L65.82-6.96Q65.82-12.54 68.86-15.95L68.86-15.95L68.86-15.95Q72.11-19.61 77.77-19.61L77.77-19.61L77.77-19.61Q81.29-19.61 83.03-18.13L83.03-18.13L83.03-18.13Q84.32-17.02 84.32-15.21L84.32-15.21L84.32-15.21Q84.32-8.70 73.08-8.70L73.08-8.70L73.08-8.70Q72.93-7.73 72.93-6.92L72.93-6.92L72.93-6.92Q72.93-5.22 73.69-4.57L73.69-4.57L73.69-4.57Q74.44-3.92 75.85-3.92L75.85-3.92L75.85-3.92Q77.26-3.92 78.75-4.57L78.75-4.57L78.75-4.57Q80.25-5.22 80.88-6.25ZM73.33-10.29L73.33-10.29L73.33-10.29Q75.96-10.29 77.48-11.91L77.48-11.91L77.48-11.91Q79.00-13.47 79.00-15.95L79.00-15.95L79.00-15.95Q79.00-16.80 78.68-17.26L78.68-17.26L78.68-17.26Q78.37-17.72 77.74-17.72L77.74-17.72L77.74-17.72Q77.11-17.72 76.57-17.48L76.57-17.48L76.57-17.48Q76.03-17.24 75.48-16.43L75.48-16.43L75.48-16.43Q74.11-14.58 73.33-10.29ZM96.16-18.02L96.16-18.02L96.16-18.02Q94.91-18.98 94.91-21.03L94.91-21.03L94.91-21.03Q94.91-23.09 96.26-24.16L96.26-24.16L96.26-24.16Q97.61-25.23 99.94-25.23L99.94-25.23L99.94-25.23Q101.42-25.23 104.93-24.72L104.93-24.72L107.45-24.35L107.45-24.35Q108.71-24.20 110.02-24.20L110.02-24.20L110.02-24.20Q111.33-24.20 112.22-24.75L112.22-24.75L112.22-24.75Q113.55-23.57 113.55-21.87L113.55-21.87L113.55-21.87Q113.55-20.16 112.04-18.94L112.04-18.94L112.04-18.94Q110.48-17.65 108.48-17.65L108.48-17.65L108.48-17.65Q107.52-17.65 105.97-17.91L105.97-17.91L105.97-17.91Q104.16-12.21 104.16-8.25L104.16-8.25L104.16-8.25Q104.16-4.29 106.15-2.22L106.15-2.22L106.15-2.22Q105.23-0.55 103.86 0.09L103.86 0.09L103.86 0.09Q102.49 0.74 100.44 0.74L100.44 0.74L100.44 0.74Q98.38 0.74 97.11-0.39L97.11-0.39L97.11-0.39Q95.83-1.52 95.83-3.85L95.83-3.85L95.83-3.85Q95.83-6.55 97.31-10.99L97.31-10.99L97.31-10.99Q98.79-15.39 101.01-18.76L101.01-18.76L101.01-18.76Q99.94-18.87 98.83-18.87L98.83-18.87L98.83-18.87Q96.53-18.87 96.16-18.02ZM118.73 0.74L118.73 0.74L118.73 0.74Q110.59 0.74 110.59-6.92L110.59-6.92L110.59-6.92Q110.59-12.36 113.59-15.87L113.59-15.87L113.59-15.87Q116.77-19.61 122.28-19.61L122.28-19.61L122.28-19.61Q126.28-19.61 128.32-17.76L128.32-17.76L128.32-17.76Q130.35-15.91 130.35-12.02L130.35-12.02L130.35-12.02Q130.35-6.10 127.17-2.66L127.17-2.66L127.17-2.66Q124.06 0.74 118.73 0.74ZM119.69-15.35L119.69-15.35L119.69-15.35Q119.25-14.36 118.90-12.86L118.90-12.86L118.90-12.86Q118.55-11.36 118.10-8.99L118.10-8.99L118.10-8.99Q117.66-6.62 117.66-3.70L117.66-3.70L117.66-3.70Q117.66-2.74 117.97-2.11L117.97-2.11L117.97-2.11Q118.29-1.48 119.14-1.48L119.14-1.48L119.14-1.48Q119.99-1.48 120.53-1.89L120.53-1.89L120.53-1.89Q121.06-2.29 121.47-3.26L121.47-3.26L121.47-3.26Q122.21-4.96 122.80-8.12L122.80-8.12L122.80-8.12Q123.39-11.29 123.45-12.65L123.45-12.65L123.45-12.65Q123.51-14.02 123.51-15.04L123.51-15.04L123.51-15.04Q123.51-16.06 123.21-16.72L123.21-16.72L123.21-16.72Q122.91-17.39 122.08-17.39L122.08-17.39L122.08-17.39Q121.25-17.39 120.69-16.87L120.69-16.87L120.69-16.87Q120.14-16.35 119.69-15.35ZM154.62-24.68L154.62-24.68L154.62-24.68Q163.69-24.68 163.69-18.28L163.69-18.28L163.69-18.28Q163.69-14.76 161.43-12.65L161.43-12.65L161.43-12.65Q159.21-10.54 155.33-10.54L155.33-10.54L155.33-10.54Q153.51-10.54 152.11-11.58L152.11-11.58L152.11-11.58Q151.44-12.02 151.00-12.62L151.00-12.62L151.00-12.62Q153.70-12.62 155.12-14.26L155.12-14.26L155.12-14.26Q156.55-15.91 156.55-19.13L156.55-19.13L156.55-19.13Q156.55-22.35 153.36-22.35L153.36-22.35L152.48-22.35L152.48-22.35Q152.25-22.35 152.07-22.31L152.07-22.31L147.81 0L139.79 0L144.34-24.23L144.34-24.23Q148.30-24.61 150.59-24.64L150.59-24.64L150.59-24.64Q152.88-24.68 154.62-24.68ZM175.45-10.40L175.45-10.40L175.45-10.40Q176.79-12.76 176.79-15.17L176.79-15.17L176.79-15.17Q176.79-16.76 175.64-16.76L175.64-16.76L175.64-16.76Q174.75-16.76 173.83-15.24L173.83-15.24L173.83-15.24Q172.86-13.73 172.57-11.77L172.57-11.77L170.64 0L162.98 0.74L166.76-18.87L172.86-19.61L172.20-15.87L172.20-15.87Q174.01-19.61 178.08-19.61L178.08-19.61L178.08-19.61Q180.23-19.61 181.39-18.50L181.39-18.50L181.39-18.50Q182.56-17.39 182.56-15.11L182.56-15.11L182.56-15.11Q182.56-12.84 181.06-11.40L181.06-11.40L181.06-11.40Q179.56-9.95 177.01-9.95L177.01-9.95L177.01-9.95Q175.90-9.95 175.45-10.40ZM191.22 0.74L191.22 0.74L191.22 0.74Q183.08 0.74 183.08-6.92L183.08-6.92L183.08-6.92Q183.08-12.36 186.07-15.87L186.07-15.87L186.07-15.87Q189.25-19.61 194.77-19.61L194.77-19.61L194.77-19.61Q198.76-19.61 200.80-17.76L200.80-17.76L200.80-17.76Q202.83-15.91 202.83-12.02L202.83-12.02L202.83-12.02Q202.83-6.10 199.65-2.66L199.65-2.66L199.65-2.66Q196.54 0.74 191.22 0.74ZM192.18-15.35L192.18-15.35L192.18-15.35Q191.73-14.36 191.38-12.86L191.38-12.86L191.38-12.86Q191.03-11.36 190.59-8.99L190.59-8.99L190.59-8.99Q190.14-6.62 190.14-3.70L190.14-3.70L190.14-3.70Q190.14-2.74 190.46-2.11L190.46-2.11L190.46-2.11Q190.77-1.48 191.62-1.48L191.62-1.48L191.62-1.48Q192.47-1.48 193.01-1.89L193.01-1.89L193.01-1.89Q193.55-2.29 193.95-3.26L193.95-3.26L193.95-3.26Q194.69-4.96 195.29-8.12L195.29-8.12L195.29-8.12Q195.88-11.29 195.93-12.65L195.93-12.65L195.93-12.65Q195.99-14.02 195.99-15.04L195.99-15.04L195.99-15.04Q195.99-16.06 195.69-16.72L195.69-16.72L195.69-16.72Q195.40-17.39 194.56-17.39L194.56-17.39L194.56-17.39Q193.73-17.39 193.18-16.87L193.18-16.87L193.18-16.87Q192.62-16.35 192.18-15.35ZM207.64-15.47L207.64-15.47L207.64-15.47Q208.90-17.24 210.81-18.43L210.81-18.43L210.81-18.43Q212.71-19.61 215.04-19.61L215.04-19.61L215.04-19.61Q217.37-19.61 218.48-18.87L218.48-18.87L225.74-19.61L223.22-5.40L223.22-5.40Q221.93 1.85 219.19 4.70L219.19 4.70L219.19 4.70Q216.56 7.40 211.45 7.40L211.45 7.40L211.45 7.40Q207.57 7.40 205.35 6.18L205.35 6.18L205.35 6.18Q203.13 4.96 203.13 2.92L203.13 2.92L203.13 2.92Q203.13 1.41 204.28 0.54L204.28 0.54L204.28 0.54Q205.42-0.33 207.20-0.33L207.20-0.33L207.20-0.33Q208.75-0.33 209.94 0.37L209.94 0.37L209.94 0.37Q210.64 0.74 210.97 1.26L210.97 1.26L210.97 1.26Q210.12 2.00 210.12 3.22L210.12 3.22L210.12 3.22Q210.12 4.81 211.60 4.81L211.60 4.81L211.60 4.81Q214.08 4.81 215.49-1.04L215.49-1.04L215.49-1.04Q215.89-2.63 216.23-4.22L216.23-4.22L216.23-4.22Q214.56-2.18 210.79-2.18L210.79-2.18L210.79-2.18Q208.16-2.18 206.64-3.44L206.64-3.44L206.64-3.44Q205.13-4.70 205.13-7.66L205.13-7.66L205.13-7.66Q205.13-9.51 205.76-11.60L205.76-11.60L205.76-11.60Q206.39-13.69 207.64-15.47ZM212.45-7.55L212.45-7.55L212.45-7.55Q212.45-5.03 213.75-5.03L213.75-5.03L213.75-5.03Q214.64-5.03 215.49-5.99L215.49-5.99L215.49-5.99Q216.15-6.77 216.41-7.92L216.41-7.92L218.30-17.43L218.30-17.43Q218.11-17.46 217.93-17.54L217.93-17.54L217.93-17.54Q217.56-17.69 217.08-17.69L217.08-17.69L217.08-17.69Q214.82-17.69 213.49-13.99L213.49-13.99L213.49-13.99Q212.45-11.10 212.45-7.55ZM238.76-10.40L238.76-10.40L238.76-10.40Q240.09-12.76 240.09-15.17L240.09-15.17L240.09-15.17Q240.09-16.76 238.95-16.76L238.95-16.76L238.95-16.76Q238.06-16.76 237.13-15.24L237.13-15.24L237.13-15.24Q236.17-13.73 235.87-11.77L235.87-11.77L233.95 0L226.29 0.74L230.07-18.87L236.17-19.61L235.50-15.87L235.50-15.87Q237.32-19.61 241.39-19.61L241.39-19.61L241.39-19.61Q243.53-19.61 244.70-18.50L244.70-18.50L244.70-18.50Q245.86-17.39 245.86-15.11L245.86-15.11L245.86-15.11Q245.86-12.84 244.37-11.40L244.37-11.40L244.37-11.40Q242.87-9.95 240.31-9.95L240.31-9.95L240.31-9.95Q239.20-9.95 238.76-10.40ZM248.07-1.11L248.07-1.11L248.07-1.11Q247.20-2.07 246.81-3.59L246.81-3.59L246.81-3.59Q246.42-5.11 246.42-7.58L246.42-7.58L246.42-7.58Q246.42-10.06 247.27-12.32L247.27-12.32L247.27-12.32Q248.12-14.58 249.68-16.21L249.68-16.21L249.68-16.21Q252.86-19.61 258.11-19.61L258.11-19.61L258.11-19.61Q260.00-19.61 261.37-18.98L261.37-18.98L267.69-19.61L264.96-5.18L264.96-5.18Q264.85-4.74 264.85-3.92L264.85-3.92L264.85-3.92Q264.85-3.11 265.35-2.59L265.35-2.59L265.35-2.59Q265.84-2.07 266.58-2.00L266.58-2.00L266.58-2.00Q266.21-0.74 264.86 0L264.86 0L264.86 0Q263.51 0.74 262.00 0.74L262.00 0.74L262.00 0.74Q260.48 0.74 259.46 0.17L259.46 0.17L259.46 0.17Q258.44-0.41 258.15-1.37L258.15-1.37L258.15-1.37Q257.56-0.44 256.30 0.15L256.30 0.15L256.30 0.15Q255.04 0.74 253.36 0.74L253.36 0.74L253.36 0.74Q251.67 0.74 250.30 0.30L250.30 0.30L250.30 0.30Q248.94-0.15 248.07-1.11ZM255.87-16.13L255.87-16.13L255.87-16.13Q255.45-15.47 255.08-14.34L255.08-14.34L255.08-14.34Q254.71-13.21 254.10-10.19L254.10-10.19L254.10-10.19Q253.49-7.18 253.49-5.03L253.49-5.03L253.49-5.03Q253.49-2.89 253.82-2.26L253.82-2.26L253.82-2.26Q254.15-1.63 254.74-1.63L254.74-1.63L254.74-1.63Q255.93-1.63 256.80-2.76L256.80-2.76L256.80-2.76Q257.67-3.88 258.00-5.88L258.00-5.88L259.96-16.72L259.96-16.72Q259.18-17.39 258.28-17.39L258.28-17.39L258.28-17.39Q257.37-17.39 256.84-17.09L256.84-17.09L256.84-17.09Q256.30-16.80 255.87-16.13ZM296.33 0.74L296.33 0.74L296.33 0.74Q291.86 0.74 291.86-2.74L291.86-2.74L291.86-2.74Q291.86-4.25 292.50-7.20L292.50-7.20L292.50-7.20Q293.15-10.14 293.37-11.32L293.37-11.32L293.37-11.32Q293.89-14.02 293.89-14.87L293.89-14.87L293.89-14.87Q293.89-16.76 292.48-16.76L292.48-16.76L292.48-16.76Q291.56-16.76 290.67-15.48L290.67-15.48L290.67-15.48Q289.78-14.21 289.38-11.65L289.38-11.65L287.08 0L279.87 0.74L281.87-9.32L281.87-9.32Q282.20-10.99 282.49-12.88L282.49-12.88L282.49-12.88Q282.79-14.76 282.79-15.06L282.79-15.06L282.79-15.06Q282.79-16.76 281.53-16.76L281.53-16.76L281.53-16.76Q280.68-16.76 279.76-15.50L279.76-15.50L279.76-15.50Q278.83-14.24 278.31-11.65L278.31-11.65L276.06 0L268.77 0.74L272.65-18.87L278.68-19.61L278.05-15.87L278.05-15.87Q279.02-17.87 280.79-18.74L280.79-18.74L280.79-18.74Q282.57-19.61 285.34-19.61L285.34-19.61L285.34-19.61Q286.93-19.61 287.97-18.83L287.97-18.83L287.97-18.83Q289.01-18.06 289.34-16.80L289.34-16.80L289.34-16.80Q289.97-18.09 291.58-18.85L291.58-18.85L291.58-18.85Q293.19-19.61 295.17-19.61L295.17-19.61L295.17-19.61Q297.15-19.61 298.13-19.18L298.13-19.18L298.13-19.18Q299.11-18.76 299.70-18.06L299.70-18.06L299.70-18.06Q300.70-16.76 300.70-14.39L300.70-14.39L300.70-14.39Q300.70-12.06 299.70-7.21L299.70-7.21L299.70-7.21Q299.18-4.85 299.18-3.98L299.18-3.98L299.18-3.98Q299.18-3.11 299.68-2.59L299.68-2.59L299.68-2.59Q300.18-2.07 300.92-2.00L300.92-2.00L300.92-2.00Q300.55-0.74 299.27 0L299.27 0L299.27 0Q298.00 0.74 296.33 0.74Z" fill="#ccc"></path></g></g><style>text {
  font-size: 64px;
  font-family: Arial Black;
  dominant-baseline: central;
  text-anchor: middle;
}</style></svg>